<?xml version="1.0" encoding="utf-8"?>
<!-- Generator: Adobe Illustrator 16.0.4, SVG Export Plug-In . SVG Version: 6.00 Build 0)  -->
<!DOCTYPE svg PUBLIC "-//W3C//DTD SVG 1.1//EN" "http://www.w3.org/Graphics/SVG/1.1/DTD/svg11.dtd">
<svg version="1.1" id="Layer_1" xmlns="http://www.w3.org/2000/svg" xmlns:xlink="http://www.w3.org/1999/xlink" x="0px" y="0px"
	 width="163px" height="38px" viewBox="0 0 163 38" enable-background="new 0 0 163 38" xml:space="preserve">
<path id="Rectangle-Copy" fill="#F5F5F5" stroke="#E6E6E6" stroke-width="2" d="M91,37V1H5C2.791,1,1,2.791,1,5v28
	c0,2.209,1.791,4,4,4H91z"/>
<g enable-background="new    ">
	<path fill="#656565" d="M8.472,13.488h2.912c1.248,0,2.211,0.237,2.888,0.712s1.016,1.256,1.016,2.344
		c0,1.056-0.342,1.854-1.024,2.392c-0.683,0.539-1.622,0.809-2.816,0.809H9.656V24H8.472V13.488z M11.272,18.768
		c0.971,0,1.685-0.178,2.144-0.535c0.458-0.357,0.688-0.921,0.688-1.688s-0.235-1.31-0.704-1.624s-1.2-0.472-2.192-0.472H9.656
		v4.319H11.272z"/>
	<path fill="#656565" d="M18.152,23.704c-0.544-0.325-0.979-0.795-1.304-1.408c-0.326-0.613-0.488-1.336-0.488-2.168
		s0.163-1.558,0.488-2.176c0.325-0.618,0.76-1.091,1.304-1.416s1.136-0.488,1.776-0.488c0.64,0,1.232,0.163,1.776,0.488
		c0.544,0.325,0.979,0.798,1.304,1.416s0.488,1.344,0.488,2.176s-0.163,1.555-0.488,2.168s-0.76,1.083-1.304,1.408
		c-0.544,0.325-1.136,0.488-1.776,0.488C19.289,24.192,18.696,24.029,18.152,23.704z M21.152,22.832
		c0.357-0.256,0.637-0.618,0.84-1.088s0.304-1.008,0.304-1.616s-0.102-1.146-0.304-1.616c-0.203-0.469-0.482-0.834-0.84-1.096
		s-0.766-0.392-1.224-0.392s-0.867,0.13-1.224,0.392c-0.358,0.262-0.635,0.627-0.832,1.096c-0.198,0.47-0.296,1.008-0.296,1.616
		c0,0.928,0.219,1.675,0.656,2.24c0.437,0.565,1.002,0.848,1.696,0.848C20.387,23.216,20.795,23.088,21.152,22.832z"/>
	<path fill="#656565" d="M24.584,16.24h1.2L27,20.864l0.144,0.688c0.149,0.641,0.256,1.126,0.32,1.456h0.064
		c0.202-0.832,0.384-1.546,0.544-2.144l1.248-4.624h1.168l1.264,4.624l0.544,2.144h0.064l0.512-2.144l1.184-4.624h1.12L33.064,24
		h-1.44l-1.184-4.336L30.136,18.4c-0.021-0.086-0.096-0.405-0.224-0.96h-0.064c-0.235,1.056-0.421,1.808-0.56,2.256L28.136,24h-1.36
		L24.584,16.24z"/>
	<path fill="#656565" d="M42.744,20.384h-5.36c0.053,0.907,0.333,1.611,0.84,2.112c0.506,0.501,1.128,0.752,1.864,0.752
		c0.682,0,1.338-0.208,1.968-0.624l0.432,0.768c-0.384,0.246-0.779,0.44-1.184,0.584c-0.405,0.145-0.859,0.217-1.36,0.217
		c-0.683,0-1.304-0.163-1.864-0.488s-1.002-0.797-1.328-1.416c-0.326-0.618-0.488-1.339-0.488-2.16c0-0.811,0.163-1.525,0.488-2.144
		c0.325-0.619,0.754-1.097,1.288-1.433s1.099-0.504,1.696-0.504c0.96,0,1.709,0.323,2.248,0.968
		c0.539,0.646,0.808,1.534,0.808,2.664C42.792,19.957,42.776,20.192,42.744,20.384z M41.752,19.536c0-0.821-0.176-1.45-0.528-1.888
		s-0.843-0.656-1.472-0.656c-0.576,0-1.088,0.219-1.536,0.656c-0.448,0.438-0.715,1.066-0.8,1.888H41.752z"/>
	<path fill="#656565" d="M44.744,16.24h0.96l0.096,1.424h0.048c0.267-0.501,0.592-0.896,0.976-1.184
		c0.384-0.288,0.794-0.433,1.232-0.433c0.31,0,0.576,0.054,0.8,0.16l-0.224,1.024c-0.277-0.086-0.523-0.129-0.736-0.129
		c-0.363,0-0.723,0.15-1.08,0.448c-0.357,0.299-0.664,0.763-0.92,1.393V24h-1.152V16.24z"/>
	<path fill="#656565" d="M55.896,20.384h-5.36c0.053,0.907,0.333,1.611,0.84,2.112c0.506,0.501,1.128,0.752,1.864,0.752
		c0.682,0,1.338-0.208,1.968-0.624l0.432,0.768c-0.384,0.246-0.779,0.44-1.184,0.584c-0.405,0.145-0.859,0.217-1.36,0.217
		c-0.683,0-1.304-0.163-1.864-0.488s-1.002-0.797-1.328-1.416c-0.326-0.618-0.488-1.339-0.488-2.16c0-0.811,0.163-1.525,0.488-2.144
		c0.325-0.619,0.754-1.097,1.288-1.433s1.099-0.504,1.696-0.504c0.96,0,1.709,0.323,2.248,0.968
		c0.539,0.646,0.808,1.534,0.808,2.664C55.944,19.957,55.928,20.192,55.896,20.384z M54.904,19.536c0-0.821-0.176-1.45-0.528-1.888
		s-0.843-0.656-1.472-0.656c-0.576,0-1.088,0.219-1.536,0.656c-0.448,0.438-0.715,1.066-0.8,1.888H54.904z"/>
	<path fill="#656565" d="M58.176,23.12c-0.571-0.715-0.856-1.712-0.856-2.992c0-0.811,0.154-1.525,0.464-2.144
		c0.309-0.619,0.723-1.097,1.24-1.433c0.518-0.336,1.075-0.504,1.672-0.504c0.416,0,0.789,0.075,1.12,0.225s0.693,0.378,1.088,0.688
		l-0.048-1.344v-3.04h1.152V24h-0.96l-0.096-0.944h-0.048c-0.331,0.342-0.702,0.616-1.112,0.824s-0.84,0.312-1.288,0.312
		C59.522,24.192,58.747,23.835,58.176,23.12z M61.824,22.928c0.336-0.181,0.68-0.458,1.032-0.832v-4.208
		c-0.341-0.298-0.672-0.515-0.992-0.647c-0.32-0.134-0.651-0.2-0.992-0.2c-0.438,0-0.834,0.134-1.192,0.4s-0.64,0.635-0.848,1.104
		c-0.208,0.47-0.312,0.997-0.312,1.584c0,0.96,0.195,1.712,0.584,2.256S60.045,23.2,60.76,23.2
		C61.133,23.2,61.488,23.109,61.824,22.928z"/>
	<path fill="#656565" d="M72.119,23.928c-0.395-0.176-0.763-0.418-1.104-0.728h-0.048L70.855,24h-0.928V12.576h1.152v3.168
		l-0.032,1.424c0.864-0.746,1.696-1.12,2.496-1.12c0.992,0,1.752,0.354,2.28,1.064c0.528,0.709,0.792,1.672,0.792,2.888
		c0,0.854-0.155,1.598-0.464,2.232c-0.31,0.635-0.72,1.119-1.232,1.456c-0.512,0.336-1.067,0.504-1.664,0.504
		C72.893,24.192,72.514,24.104,72.119,23.928z M74.271,22.808c0.357-0.261,0.637-0.632,0.84-1.111
		c0.203-0.48,0.304-1.04,0.304-1.681c0-0.928-0.174-1.655-0.52-2.184c-0.347-0.528-0.888-0.792-1.624-0.792
		c-0.662,0-1.392,0.373-2.192,1.12v4.191c0.341,0.288,0.685,0.502,1.032,0.641s0.664,0.208,0.952,0.208
		C73.511,23.2,73.914,23.069,74.271,22.808z"/>
	<path fill="#656565" d="M77.832,27.232l0.224-0.944c0.213,0.085,0.416,0.128,0.608,0.128c0.426,0,0.789-0.16,1.088-0.48
		c0.298-0.319,0.539-0.752,0.72-1.296l0.192-0.592l-3.136-7.808h1.2l1.664,4.448l0.768,2.176h0.064
		c0.149-0.448,0.304-0.938,0.464-1.473l0.208-0.703l1.456-4.448h1.137l-2.944,8.479c-0.299,0.832-0.669,1.485-1.112,1.96
		c-0.443,0.475-1.016,0.712-1.72,0.712C78.392,27.392,78.099,27.339,77.832,27.232z"/>
</g>
<path id="Rectangle" fill="#FFFFFF" stroke="#E6E6E6" stroke-width="2" d="M91,1v36h67c2.209,0,4-1.791,4-4V5c0-2.209-1.791-4-4-4
	H91z"/>
<g id="Logo_x2F_Brand" transform="translate(97.000000, 9.000000)">
	<g id="Shape">
		<path fill="#239DFF" d="M22.667,0.007h-2.438c-0.449,0-0.744,0.345-0.744,0.778v18.093c0,0.433,0.295,0.78,0.744,0.78h2.438
			c0.449,0,0.795-0.348,0.795-0.78V0.785C23.462,0.352,23.116,0.007,22.667,0.007"/>
		<path fill="#239DFF" d="M15.054,14.294c-0.222-0.483-0.856-0.616-1.245-0.253c-1.031,0.962-2.414,1.553-3.939,1.553
			c-3.996,0-7.045-4.037-5.26-8.242c0.527-1.243,1.527-2.237,2.775-2.761c2.438-1.026,4.811-0.441,6.383,0.999
			c0.395,0.36,1.025,0.232,1.247-0.252l1.056-2.308c0.169-0.37,0.053-0.803-0.272-1.047c-2.474-1.863-5.851-2.594-9.37-1.399
			C3.603,1.541,1.399,3.811,0.502,6.647c-2.145,6.784,2.88,13.02,9.367,13.02c2.258,0,4.332-0.761,5.993-2.034
			c0.313-0.24,0.412-0.67,0.248-1.029L15.054,14.294z"/>
		<path fill="#239DFF" d="M58.445,6.647c-0.896-2.836-3.1-5.106-5.924-6.065c-2-0.679-3.953-0.735-5.721-0.316
			c-2.949,0.656-5.085,2.049-6.962,6.065l-3.767,8.14L29.679,0.468c-0.128-0.279-0.407-0.458-0.714-0.459l-2.794-0.004
			c-0.573-0.001-0.954,0.59-0.717,1.109l8.292,18.065c0.127,0.279,0.407,0.468,0.715,0.468l0.137,0.012h3.135
			c0.063,0,0.127-0.014,0.186-0.033c0.217-0.074,0.398-0.227,0.492-0.439c0,0,4.152-9.415,4.2-9.528
			c1.263-2.968,2.03-4.205,4.034-5.054c1.518-0.643,3.312-0.721,5.046,0.062c1.208,0.545,2.157,1.541,2.661,2.761
			c0.32,0.764,0.481,1.55,0.508,2.324c0.045,3.22-2.56,5.844-5.78,5.844c-1.524,0-2.908-0.591-3.939-1.554
			c-0.39-0.363-1.024-0.23-1.245,0.254l-1.057,2.31c-0.164,0.358-0.066,0.788,0.248,1.028c1.66,1.273,3.735,2.034,5.993,2.034
			C55.566,19.667,60.592,13.431,58.445,6.647"/>
	</g>
</g>
</svg>
